<?xml version="1.0" encoding="UTF-8"?>
<!--
  McCallister Guard — App Icon
  Homey icon contract: white monochrome paths on transparent background.
  Homey renders this on a circle filled with brandColor (#1A531A).
  No CSS classes, no background rect — inline fill attributes only.
  Source: design/appicon with shield.svg (Adobe Illustrator export, cleaned).
-->
<svg xmlns="http://www.w3.org/2000/svg" viewBox="0 0 1000 1000">
  <!-- Scale 1.171× from centre (500,500) to fill more of the Homey brandColor circle -->
  <g fill="#FFFFFF" transform="translate(500 500) scale(1.171) translate(-500 -500)">
    <!-- Figure: head -->
    <path d="M544.13,282.8c-4.96,8.54-27.49,48.74-31.41,55.73c-0.36,0.65-1.04,1.04-1.78,1.04h-22.71
      c-0.75,0-1.44-0.41-1.8-1.07c-2.95-5.47-16.61-30.8-27.37-50.6c-9.54-17.55-22.53-18.61-27.64-18.27
      c-1.19,0.08-2.2-0.9-2.16-2.09c1.26-37.85,32.33-68.14,70.49-68.14c38.19,0,69.29,30.35,70.49,68.24
      c0.04,1.17-0.94,2.14-2.11,2.09C563.27,269.55,551.31,270.45,544.13,282.8z"/>
    <!-- Figure: left arm -->
    <path d="M443.25,289.53l29.94,53.62c6.07,10.88,6.04,24.13-0.09,34.98l-54.78,96.96
      c-8.72,15.44-28.49,20.6-43.64,11.39c-12.4-7.53-18.13-22.51-13.92-36.39l20.86-68.79
      c4.62-15.23,16.43-27.21,31.6-32.05l5.96-1.9c0.66-0.21,1.36,0.19,1.51,0.86l1.6,6.98
      c0.11,0.47,0.03,0.95-0.21,1.37l-26.12,44.82c-1.85,3.17-0.85,7.24,2.26,9.19
      c3.25,2.04,7.54,0.99,9.49-2.32l29.82-50.81l-17.55-57.54c-1.8-5.88,0.75-12.22,6.12-15.23
      C432.16,281.27,439.85,283.44,443.25,289.53z"/>
    <!-- Figure: right arm -->
    <path d="M556.75,289.53l-29.94,53.62c-6.07,10.88-6.04,24.13,0.09,34.98l54.78,96.96
      c8.72,15.44,28.49,20.6,43.64,11.39c12.4-7.53,18.13-22.51,13.92-36.39l-20.86-68.79
      c-4.62-15.23-16.43-27.21-31.6-32.05l-5.96-1.9c-0.66-0.21-1.36,0.19-1.51,0.86l-1.6,6.98
      c-0.11,0.47-0.03,0.95,0.21,1.37l26.12,44.82c1.85,3.17,0.85,7.24-2.26,9.19
      c-3.25,2.04-7.54,0.99-9.49-2.32l-29.82-50.81l17.55-57.54c1.8-5.88-0.75-12.22-6.12-15.23
      C567.84,281.27,560.15,283.44,556.75,289.53z"/>
    <!-- Figure: torso and legs -->
    <path d="M507.75,356.45c0,0-1.41,11.6,3.87,23.2c5.27,11.6,47.98,86.48,47.98,86.48
      s8.26,14.06,14.24,22.15v279.21c0,18.3-14.83,33.13-33.13,33.13c-18.3,0-33.13-14.83-33.13-33.13V588.81h-16.01v178.67
      c0,18.3-14.83,33.13-33.13,33.13c-18.3,0-33.13-14.83-33.13-33.13V488.27
      c5.98-8.09,14.24-22.15,14.24-22.15s42.71-74.88,47.98-86.48c5.27-11.6,3.87-23.2,3.87-23.2H507.75z"/>
    <!-- Shield outline -->
    <path d="M500,925c-2.66,0-5.32-0.55-7.81-1.65c-41.99-18.55-80.73-40.28-115.14-64.57
      c-23.11-16.32-44.95-34.42-64.9-53.79c-53.19-51.63-93.42-112.16-116.33-175.06
      c-25.9-71.09-29.65-147.2-30.02-205.58c-0.34-53.45-0.28-107.75-0.23-160.27
      c0.02-19.89,0.04-39.78,0.04-59.67c0-9.87,7.44-18.15,17.25-19.21
      C346.61,167.55,488.25,78.89,489.67,78c6.31-3.99,14.36-3.99,20.67,0
      c1.41,0.89,143.4,89.59,306.81,107.21c9.81,1.06,17.25,9.34,17.25,19.21
      c0,19.89,0.02,39.78,0.04,59.67c0.05,52.52,0.11,106.83-0.23,160.27
      c-0.37,58.37-4.12,134.49-30.02,205.58c-22.92,62.89-63.14,123.43-116.33,175.06
      c-19.95,19.37-41.79,37.47-64.9,53.79c-34.41,24.3-73.15,46.02-115.14,64.57
      C505.32,924.45,502.66,925,500,925z
      M204.25,221.52c-0.01,14.2-0.02,28.41-0.04,42.61c-0.05,52.45-0.11,106.68,0.23,159.99
      c0.35,55.25,3.81,127.08,27.69,192.59c20.93,57.45,57.91,112.97,106.94,160.56
      c18.52,17.98,38.8,34.78,60.28,49.95c30.19,21.32,64.02,40.57,100.66,57.29
      c36.64-16.72,70.47-35.97,100.66-57.29c21.48-15.17,41.76-31.97,60.28-49.95
      c49.03-47.59,86.01-103.11,106.94-160.56c23.87-65.51,27.33-137.34,27.69-192.59
      c0.34-53.31,0.28-107.54,0.23-159.99c-0.01-14.2-0.03-28.41-0.04-42.61
      C654.68,202.29,535.22,137.51,500,116.88C464.77,137.51,345.32,202.29,204.25,221.52z"/>
  </g>
</svg>
